<svg width="21" height="21" viewBox="0 0 21 21" fill="none" xmlns="http://www.w3.org/2000/svg">
<path fill-rule="evenodd" clip-rule="evenodd" d="M0 10.5C0 4.70101 4.70101 0 10.5 0C16.299 0 21 4.70102 21 10.5C21 16.299 16.299 21 10.5 21C4.70102 21 0 16.299 0 10.5ZM10.5 2.1C5.86081 2.1 2.1 5.86081 2.1 10.5C2.1 15.1392 5.86081 18.9 10.5 18.9C15.1392 18.9 18.9 15.1392 18.9 10.5C18.9 5.86081 15.1392 2.1 10.5 2.1Z" fill="#87B9D7"/>
<path d="M11.9 8.85003L10.4 14.05C10.3 14.35 10.3 14.55 10.3 14.65C10.3 14.75 10.3 14.75 10.4 14.75C10.5 14.75 10.5 14.85 10.5 14.85C10.6 14.85 10.7 14.85 10.7 14.75C10.9001 14.55 11.2 14.25 11.5 13.75L11.7 13.85C11 15.15 10.2 15.75 9.40002 15.75C9.10004 15.75 8.80005 15.65 8.69999 15.45C8.49996 15.25 8.4 15.05 8.4 14.75C8.4 14.55 8.4 14.35 8.49996 14.05L9.49998 10.55C9.60005 10.35 9.70001 10.15 9.70001 9.95001C9.70001 9.85005 9.70001 9.74999 9.60005 9.65002C9.49998 9.65002 9.29996 9.54996 9.2 9.54996C9.10004 9.54996 8.99997 9.54996 8.90001 9.54996L8.99997 9.24997L11.5 8.85003H11.9ZM11.5 5.25C11.8 5.25 12.1 5.35 12.3 5.55C12.5 5.75 12.6 6.04999 12.6 6.35C12.6 6.65 12.5 6.85 12.3 7.15C12.1 7.35 11.8 7.45 11.5 7.45C11.2 7.45 11 7.35 10.8 7.15C10.6 6.95 10.5 6.65 10.5 6.35C10.5 6.04999 10.6 5.85 10.8 5.55C10.9001 5.35 11.2 5.25 11.5 5.25Z" fill="#87B9D7"/>
<path fill-rule="evenodd" clip-rule="evenodd" d="M11.1725 5.56871C11.081 5.60531 11.0455 5.64592 11.0347 5.66744C11.0299 5.67716 11.0244 5.68656 11.0184 5.6956C10.8271 5.9825 10.7625 6.12887 10.7625 6.34999C10.7625 6.59791 10.846 6.82475 10.9856 6.96435C11.0701 7.04886 11.1442 7.10181 11.2191 7.13511C11.2929 7.1679 11.3807 7.18749 11.5 7.18749C11.7379 7.18749 11.9565 7.11058 12.0972 6.9809C12.2764 6.70933 12.3375 6.56499 12.3375 6.34999C12.3375 6.10206 12.254 5.87523 12.1144 5.73561M10.9775 5.08126C11.1392 5.01658 11.3234 4.98749 11.5 4.98749C11.8521 4.98749 12.2252 5.10401 12.4856 5.36435C12.746 5.62474 12.8625 5.99791 12.8625 6.34999C12.8625 6.72887 12.7272 6.9825 12.5184 7.29561C12.5088 7.30999 12.4978 7.32339 12.4856 7.33561C12.2252 7.59596 11.8521 7.71249 11.5 7.71249C11.3194 7.71249 11.1571 7.68207 11.0059 7.61487C10.8558 7.54817 10.7299 7.45111 10.6144 7.33561M10.9775 5.08126C10.8239 5.1427 10.6647 5.24733 10.5737 5.41616L10.9775 5.08126ZM11.4586 8.59081C11.4723 8.58862 11.4861 8.58752 11.5 8.58752H11.9C11.9824 8.58752 12.0601 8.62629 12.1097 8.69221C12.1593 8.75812 12.175 8.84351 12.1522 8.92277L10.6493 14.1332C10.5958 14.2934 10.5752 14.4185 10.5673 14.5113C10.7594 14.3179 11.0165 14.0456 11.2749 13.6149C11.3455 13.4973 11.4948 13.4538 11.6175 13.5152L11.8175 13.6153C11.881 13.647 11.9289 13.7031 11.9503 13.7708C11.9717 13.8385 11.9648 13.912 11.9312 13.9745C11.2155 15.3034 10.3469 16.0125 9.40002 16.0125C9.22338 16.0125 9.03926 15.9834 8.87755 15.9187C8.73155 15.8603 8.58047 15.7629 8.48775 15.6085C8.38393 15.5004 8.2966 15.3825 8.2351 15.2441C8.1679 15.0928 8.1375 14.9306 8.1375 14.75V14.7488C8.1375 14.5426 8.1375 14.31 8.24908 13.9726L9.24758 10.4779C9.25204 10.4622 9.25794 10.4471 9.26521 10.4325C9.37287 10.2173 9.4375 10.076 9.4375 9.95C9.4375 9.91895 9.4371 9.89977 9.43614 9.88648C9.39589 9.87533 9.35419 9.86142 9.32008 9.85005L9.31693 9.849C9.27773 9.83592 9.24749 9.82592 9.22148 9.81882C9.20502 9.81433 9.19667 9.81286 9.19449 9.81245H8.90001C8.81563 9.81245 8.7364 9.77189 8.68706 9.70344C8.63773 9.635 8.6243 9.54701 8.65097 9.46696L8.75093 9.16698C8.78186 9.07414 8.86187 9.00622 8.9585 8.99076L11.4586 8.59081ZM10.2375 14.8505L10.2375 14.852L10.2375 14.854L10.2376 14.8576L10.238 14.8644C10.2383 14.8687 10.2387 14.873 10.2395 14.8775C10.2408 14.8853 10.2439 14.8997 10.2527 14.9173C10.262 14.9359 10.28 14.9625 10.3121 14.9839C10.3458 15.0065 10.379 15.0125 10.4 15.0125C10.3985 15.0125 10.3968 15.0125 10.395 15.0125C10.3754 15.0125 10.3426 15.0126 10.3132 15.0093C10.3071 15.0086 10.2988 15.0076 10.2887 15.0058C10.2557 14.961 10.2376 14.9069 10.2375 14.8505ZM10.4072 15.0956C10.3727 15.0825 10.341 15.0622 10.3144 15.0356C10.305 15.0263 10.2965 15.0163 10.2887 15.0058C10.2493 14.9988 10.1838 14.98 10.127 14.9232C10.0556 14.8519 10.044 14.7669 10.0406 14.7368C10.0374 14.7075 10.0374 14.6746 10.0375 14.655C10.0375 14.6532 10.0375 14.6516 10.0375 14.65C10.0375 14.5367 10.0384 14.307 10.1493 13.9722L10.1478 13.9773L10.4 14.05L10.151 13.967C10.1504 13.9687 10.1499 13.9705 10.1493 13.9722L11.551 9.11252H11.9V8.85002L11.6477 8.77727L11.551 9.11252H11.5209L11.5415 9.10922L11.5 8.85002V9.11252H11.5209L9.69376 9.40481C9.66589 9.39416 9.63617 9.38825 9.60583 9.38758C9.60432 9.38727 9.59598 9.38591 9.57847 9.38113C9.55246 9.37404 9.52221 9.36403 9.48303 9.35096L9.47982 9.34989C9.44456 9.33813 9.40119 9.32366 9.35971 9.31235C9.3205 9.30164 9.26144 9.28745 9.19999 9.28745H9.11329L8.99997 9.24996L9.00596 9.28745H8.90059L8.90001 9.54995L9.14905 9.63293L9.19867 9.48401L9.69376 9.40481C9.72792 9.41787 9.7593 9.43804 9.78566 9.4644C9.96283 9.64157 9.96262 9.83647 9.96251 9.94225C9.9625 9.94489 9.9625 9.94747 9.9625 9.95C9.9625 10.2132 9.83768 10.4621 9.74587 10.6452C9.7458 10.6453 9.74595 10.645 9.74587 10.6452L9.75238 10.6221L9.49998 10.55L9.73474 10.6674C9.73831 10.6603 9.74218 10.6525 9.74587 10.6452L8.74923 14.1331C8.66294 14.3921 8.6625 14.5576 8.6625 14.75C8.6625 14.8693 8.68208 14.9571 8.71486 15.0309C8.74816 15.1058 8.80109 15.1799 8.8856 15.2644C8.90553 15.2843 8.92213 15.3073 8.93474 15.3326C8.94551 15.3541 8.98102 15.3947 9.07251 15.4313C9.16081 15.4666 9.27667 15.4875 9.40002 15.4875C9.72175 15.4875 10.0625 15.3684 10.4072 15.0956ZM10.6776 14.85C10.6184 14.9109 10.5591 14.967 10.5 15.0185C10.469 15.0454 10.4381 15.0711 10.4072 15.0956C10.4366 15.1067 10.468 15.1125 10.5 15.1125C10.5026 15.1125 10.5056 15.1125 10.509 15.1126C10.5499 15.1128 10.6403 15.1133 10.7205 15.0865C10.7714 15.0696 10.8378 15.0361 10.89 14.969C10.9116 14.9412 10.9275 14.9119 10.9388 14.8823C11.1425 14.6773 11.4345 14.3694 11.7251 13.885L11.6924 13.8654L11.7 13.85L11.4689 13.7256C11.4681 13.727 11.4674 13.7284 11.4666 13.7299C11.2384 14.153 11.005 14.4895 10.7711 14.75H10.7482C10.7425 14.7297 10.7343 14.7067 10.7223 14.6827C10.7005 14.6391 10.6637 14.5874 10.6035 14.5473C10.5914 14.5392 10.5789 14.5319 10.5662 14.5256" fill="#87B9D7"/>
</svg>
